<svg width="250" height="275" viewBox="0 0 250 275" fill="none" xmlns="http://www.w3.org/2000/svg">
<path d="M146.75 83.25C147.25 132.5 147 182.25 146.5 190.75C145.5 212.25 139.75 221.75 118 225C114.75 225.5 82 226 77.25 225.5C59.75 224.25 46.5 220.5 42.5 201.75C42 198.75 42 195 42 178.5L42.25 159L44.25 155C48 147.5 54.25 143 62.25 141.5C65.5 141 79.5 140 84.75 140H86.75L87 158V176.25L88.25 178.5C89.75 181.25 91.75 182.5 94.5 182.25C97.5 182 99.25 180.5 100.25 177.5C101.25 175.25 101.25 174.25 101.25 114.75C101.25 81.5 101.5 53.25 101.5 52V49.25H146.5L146.75 83.25ZM71.5 136.75C69.25 137.25 48.75 138.25 43 138.25H41.5V49.25H86.75V69C87 79.75 87 93.25 87.25 99C87.25 104.75 87 112.75 87 117.25C86.25 126.75 85.75 129.25 82.5 132.5C80.25 134.5 77 136 71.5 136.75Z" fill="#FF0000"/>
<path d="M206.896 50.75L207.146 225.75H161.396V50.5L184.146 50.75H206.896Z" fill="white"/>
</svg>
