<svg width="250" height="275" viewBox="0 0 250 275" fill="none" xmlns="http://www.w3.org/2000/svg">
<path d="M118.75 83.25C119.25 132.5 119 182.25 118.5 190.75C117.5 212.25 111.75 221.75 90 225C86.75 225.5 54 226 49.25 225.5C31.75 224.25 18.5 220.5 14.5 201.75C14 198.75 14 195 14 178.5L14.25 159L16.25 155C20 147.5 26.25 143 34.25 141.5C37.5 141 51.5 140 56.75 140H58.75L59 158V176.25L60.25 178.5C61.75 181.25 63.75 182.5 66.5 182.25C69.5 182 71.25 180.5 72.25 177.5C73.25 175.25 73.25 174.25 73.25 114.75C73.25 81.5 73.5 53.25 73.5 52V49.25H118.5L118.75 83.25ZM43.5 136.75C41.25 137.25 20.75 138.25 15 138.25H13.5V49.25H58.75V69C59 79.75 59 93.25 59.25 99C59.25 104.75 59 112.75 59 117.25C58.25 126.75 57.75 129.25 54.5 132.5C52.25 134.5 49 136 43.5 136.75Z" fill="white"/>
<path d="M235.896 121.25C233.396 130.25 226.646 135.75 216.146 137.25C212.896 137.5 211.146 138 213.146 138C214.396 138 223.896 141.25 226.396 142.5C230.646 144.75 233.646 148.25 234.896 152.75C235.646 155 235.646 158.75 235.646 189.5C235.646 208.25 235.396 224 235.396 224.75L235.146 225.75H212.896C195.396 225.75 190.646 225.5 190.646 225.25C190.646 224.75 190.646 210.25 190.646 192.75C190.396 163 190.396 160.75 189.646 159.5C188.646 157.75 186.646 157 184.646 157C182.396 157 180.396 157.75 178.896 159.75C178.146 160.75 178.146 162.75 177.896 191.75C177.646 208.75 177.646 223.5 177.396 224.25L177.146 225.75H132.896L132.396 224.5C132.396 223.75 132.396 212.5 132.646 199.75C133.146 186.25 133.146 168.5 132.896 158.5C132.646 137.75 133.146 128.5 134.646 125.25C135.896 122.75 138.396 120.75 142.396 118.75C146.146 117 151.146 116.5 166.896 116.5C181.396 116.5 186.396 116 188.896 114.75C192.896 112.5 193.396 110.25 192.896 91.25C192.646 83.25 192.396 71 192.396 63.75L192.146 51H193.396C193.896 51 203.896 50.75 215.146 50.75L235.896 50.5L236.146 67C236.646 96.75 236.646 118.25 235.896 121.25ZM139.896 109.25C137.146 108 135.146 105.5 134.146 102.5C133.396 100 133.146 98.75 133.146 82.5C133.146 73.25 133.396 62 133.646 58L133.896 50.5H178.646L178.396 112.25H167.646C161.146 112.25 154.896 112.25 151.896 111.75C145.146 111 141.896 110.25 139.896 109.25Z" fill="#FF0000"/>
</svg>
